<?xml version="1.0" standalone="no"?>
<!DOCTYPE svg PUBLIC "-//W3C//DTD SVG 20010904//EN"
 "http://www.w3.org/TR/2001/REC-SVG-20010904/DTD/svg10.dtd">
<svg version="1.0" xmlns="http://www.w3.org/2000/svg"
 width="260.000000pt" height="260.000000pt" viewBox="0 0 260.000000 260.000000"
 preserveAspectRatio="xMidYMid meet">
<metadata>
Created by potrace 1.14, written by Peter Selinger 2001-2017
</metadata>
<g transform="translate(0.000000,260.000000) scale(0.100000,-0.100000)"
fill="#000000" stroke="none">
<path d="M0 1300 l0 -1300 1300 0 1300 0 0 1300 0 1300 -1300 0 -1300 0 0
-1300z m1915 1081 c166 -34 309 -129 357 -238 26 -58 34 -149 19 -196 -18 -54
-84 -115 -195 -181 -110 -65 -170 -115 -193 -159 -33 -64 -9 -173 51 -238 14
-15 79 -59 144 -97 66 -39 144 -93 174 -121 60 -55 112 -143 122 -207 13 -92
-33 -242 -98 -312 -68 -74 -66 -73 -431 -208 -57 -21 -144 -64 -203 -102 -234
-147 -361 -167 -627 -101 -171 43 -162 39 -140 56 11 8 99 54 195 103 197 99
280 155 339 231 69 86 67 132 -6 137 -93 7 -208 -73 -465 -327 -145 -142 -160
-154 -181 -144 -13 6 -72 53 -131 104 -59 52 -135 118 -169 147 -71 61 -132
95 -222 123 l-64 20 34 62 c74 136 143 359 179 585 25 156 56 241 95 262 30
15 151 12 212 -6 30 -9 132 -56 227 -105 138 -71 182 -89 216 -89 51 0 66 13
66 57 0 46 -51 93 -153 142 -138 67 -220 85 -380 86 -75 0 -137 3 -137 8 0 16
113 196 152 240 89 105 200 130 323 73 33 -15 91 -39 129 -52 93 -32 137 -59
231 -143 90 -81 144 -111 198 -111 34 0 37 2 37 29 0 67 -174 262 -282 317
-70 36 -159 41 -306 19 -63 -9 -116 -14 -119 -11 -13 12 33 60 96 101 86 56
341 187 418 215 139 51 334 63 488 31z"/>
<path d="M1870 1019 c-22 -86 -41 -136 -81 -215 -51 -99 -105 -171 -191 -255
-73 -70 -82 -93 -44 -110 50 -23 198 29 241 85 26 34 78 202 94 306 22 137 7
289 -19 189z"/>
<path d="M1135 871 c-22 -10 -90 -35 -150 -56 -61 -20 -126 -46 -147 -56 -91
-46 -106 -143 -28 -184 42 -22 70 -19 121 13 66 43 292 270 285 287 -7 20 -32
19 -81 -4z"/>
</g>
</svg>
